 http://www.imdb.com/title/tt2112210/

Format                                   : AVI
Format/Info                              : Audio Video Interleave
File size                                : 701 MiB
Duration                                 : 1h 43mn
Overall bit rate                         : 948 Kbps
Writing library                          : VirtualDub build 32842/release

Video
ID                                       : 0
Format                                   : MPEG-4 Visual
Format profile                           : Advanced Simple@L5
Format settings, BVOP                    : 2
Format settings, QPel                    : No
Format settings, GMC                     : No warppoints
Format settings, Matrix                  : Default (H.263)
Muxing mode                              : Packed bitstream
Codec ID                                 : XVID
Codec ID/Hint                            : XviD
Duration                                 : 1h 43mn
Bit rate                                 : 811 Kbps
Width                                    : 640 pixels
Height                                   : 352 pixels
Display aspect ratio                     : 16:9
Frame rate                               : 24.000 fps
Color space                              : YUV
Chroma subsampling                       : 4:2:0
Bit depth                                : 8 bits
Scan type                                : Progressive
Compression mode                         : Lossy
Bits/(Pixel*Frame)                       : 0.150
Stream size                              : 600 MiB (86%)
Writing library                          : XviD 1.2.0.dev47 (UTC 2006-11-01)

Audio
ID                                       : 1
Format                                   : MPEG Audio
Format version                           : Version 1
Format profile                           : Layer 3
Codec ID                                 : 55
Codec ID/Hint                            : MP3
Duration                                 : 1h 43mn
Bit rate mode                            : Constant
Bit rate                                 : 128 Kbps
Channel(s)                               : 2 channels
Sampling rate                            : 44.1 KHz
Compression mode                         : Lossy
Stream size                              : 94.7 MiB (14%)
Alignment                                : Split accross interleaves
Interleave, duration                     : 42 ms (1.00 video frame)
Interleave, preload duration             : 500 ms
Writing library                          : LAME3.99r
Encoding settings                        : -m s -V 4 -q 3 -lowpass 17 -b 128

 
http://www.shotpix.com/images/84322757065559647825.png 
http://www.shotpix.com/images/64521796321815003901.png 
http://www.shotpix.com/images/96804065051969419510.png